<?xml version="1.0" encoding="UTF-8" standalone="no"?>
<!DOCTYPE svg PUBLIC "-//W3C//DTD SVG 1.1//EN" "http://www.w3.org/Graphics/SVG/1.1/DTD/svg11.dtd">
<svg width="100%" height="100%" viewBox="0 0 42 25" version="1.1" xmlns="http://www.w3.org/2000/svg" xmlns:xlink="http://www.w3.org/1999/xlink" xml:space="preserve" xmlns:serif="http://www.serif.com/" style="fill-rule:evenodd;clip-rule:evenodd;stroke-linejoin:round;stroke-miterlimit:2;">
    <path d="M20.832,0C15.276,0 11.804,2.778 10.415,8.333C12.499,5.556 14.929,4.513 17.707,5.208C19.292,5.605 20.425,6.754 21.678,8.027C23.721,10.1 26.085,12.5 31.248,12.5C36.804,12.5 40.276,9.722 41.665,4.167C39.582,6.944 37.151,7.986 34.374,7.292C32.789,6.895 31.656,5.746 30.402,4.472C28.359,2.4 25.995,0 20.832,0ZM10.417,12.5C4.86,12.5 1.389,15.276 0,20.832C2.083,18.054 4.514,17.012 7.292,17.707C8.876,18.103 10.009,19.253 11.263,20.525C13.306,22.6 15.67,25 20.833,25C26.389,25 29.861,22.223 31.25,16.667C29.166,19.445 26.736,20.487 23.958,19.792C22.373,19.396 21.241,18.246 19.987,16.973C17.944,14.9 15.58,12.5 10.417,12.5Z" style="fill:rgb(56,189,248);"/>
</svg>
