<?xml version="1.0" encoding="UTF-8" standalone="no"?>
<!DOCTYPE svg PUBLIC "-//W3C//DTD SVG 1.1//EN" "http://www.w3.org/Graphics/SVG/1.1/DTD/svg11.dtd">
<svg width="100%" height="100%" viewBox="0 0 773 780" version="1.1" xmlns="http://www.w3.org/2000/svg" xmlns:xlink="http://www.w3.org/1999/xlink" xml:space="preserve" xmlns:serif="http://www.serif.com/" style="fill-rule:evenodd;clip-rule:evenodd;stroke-linejoin:round;stroke-miterlimit:2;">
    <g transform="matrix(1,0,0,1,-14.2174,-15.0004)">
        <path d="M744.07,236.56L399.13,236.56C326.89,236.66 272.68,267.7 237.65,331.34C219.3,364.68 213.44,413.26 224.13,448.72L294.44,448.72C287.56,421.41 286.86,395.25 295.75,368.92C310.6,324.97 352.24,292.41 398.14,292.23C519.86,291.74 641.58,292.06 763.31,292.08C765.111,292.16 766.906,292.33 768.69,292.59C814.06,425.47 779,623.33 611.18,732.56C463.35,828.77 279.37,804.34 172.18,718.12L185.67,718.12C261.1,718.12 336.54,719.2 411.94,717.64C492.11,715.98 561.22,685.84 618.79,629.94C673.42,576.89 703.26,511.74 710.79,436.51C712.91,415.24 711.11,393.57 711.11,371.51L652.75,371.51C652.75,392.98 654.96,414.35 652.37,435.11C640.19,532.89 588.63,602 497.9,641.69C465.1,656.05 430.55,660.69 395.34,660.82C303.86,661.24 212.34,660.82 120.9,661.16C111.78,661.16 105.26,658.89 100.23,651.16C88.05,632.43 75.42,614 63.13,595.34C61.13,592.34 60.02,588.87 57.66,583.84L397.35,583.84C470.4,583.84 524.84,551.72 559.01,487.48C577.18,453.33 581.73,416.12 574.41,377.91C573.9,375.24 570.14,371.25 567.79,371.18C549.62,370.62 531.43,370.87 512.01,370.87C517.89,394.57 519.63,416.95 514.01,439.48C502.6,485.09 461.67,520.48 414.65,524.98C404.28,525.98 393.83,526.59 383.41,526.6C271.02,526.71 158.63,526.52 46.24,526.91C36.1,526.91 32.24,523.59 29.53,514.13C-34.75,292.55 111.24,69 331.41,30.06C436.76,11.41 533.72,32.87 622.16,92.93C625.851,95.244 628.891,98.463 630.99,102.28L619.33,102.28C540.55,102.42 461.75,101.53 383,103C307,104.42 240.28,131.94 184.5,183.21C120.61,241.94 87.44,315.6 84.67,402.48C84.26,415.48 85.34,428.48 86.57,441.48C86.83,444.33 90.49,449 92.83,449.16C104.73,449.97 116.7,449.57 128.65,449.59L140,449.59C140,432.71 139.15,416.84 140.14,401.09C146,306.13 189.82,234.5 273.3,187.9C310.55,167.1 350.93,157.9 393.42,157.84C490.5,157.73 587.58,157.84 684.66,157.64C691.82,157.64 696.66,159.64 700.66,165.41C716.09,188.03 731.66,210.54 747.21,233.09L744.07,236.56ZM440.7,410.63C440.87,388.75 424.7,371.27 404,370.91C383.3,370.55 368.11,386.49 367.85,409.13C367.59,431.27 383.22,449.47 402.52,449.51C422.72,449.55 440.54,431.4 440.7,410.63Z" style="fill:rgb(238,96,82);fill-rule:nonzero;"/>
        <path d="M638,103.67C541.89,103.73 359,106.67 370.64,104.21C183.46,130.71 71.23,285 90.59,448.65L17.42,450C-24.09,138.52 346.38,-130.36 638,103.67Z" style="fill-rule:nonzero;"/>
        <path d="M693.73,154.41C717.45,187.61 749.35,229.31 750.9,239.48L407.9,239.48C282.35,228.32 197.13,345.07 224.13,448.76L139.97,449.56C129.97,320.56 196.91,173.96 372.97,157.2L693.73,154.41Z" style="fill-rule:nonzero;"/>
        <path d="M294.44,448.76L402.52,449.51C345.11,436.8 369.52,370.56 404,370.91L785.07,371.91C787.07,349.96 779.3,320.91 768.33,289.64L386.94,291.73C309.82,303.61 273.65,366.33 294.44,448.76Z" style="fill-rule:nonzero;"/>
    </g>
</svg>
